<svg width="212" height="530" viewBox="0 0 212 530" fill="none" xmlns="http://www.w3.org/2000/svg">
<g clip-path="url(#clip0_0_1)">
<rect width="1366" height="617" transform="translate(-1154 -43)" fill="#FBF8F1"/>
<g style="mix-blend-mode:overlay">
<path d="M0.607998 275.406L68 292.974V312.846L23.648 323.598L68 334.734V354.606L0.607998 371.694V354.126L49.664 344.43L0.607998 332.43V314.382L49.664 302.862L0.607998 293.07L0.607998 275.406ZM13.76 250.757H27.392V228.773H40.064V250.757H54.848V225.893H68V267.173H0.607998V225.893H13.76V250.757ZM33.44 174.435C34.272 170.531 36.224 167.395 39.296 165.027C42.304 162.659 45.76 161.475 49.664 161.475C55.296 161.475 59.776 163.459 63.104 167.427C66.368 171.331 68 176.803 68 183.843V215.235H0.607998L0.607998 184.899C0.607998 178.051 2.176 172.707 5.31199 168.867C8.448 164.963 12.704 163.011 18.08 163.011C22.048 163.011 25.344 164.067 27.968 166.179C30.592 168.227 32.416 170.979 33.44 174.435ZM27.872 198.819V188.067C27.872 185.379 27.296 183.331 26.144 181.923C24.928 180.451 23.168 179.715 20.864 179.715C18.56 179.715 16.8 180.451 15.584 181.923C14.368 183.331 13.76 185.379 13.76 188.067V198.819H27.872ZM54.752 186.723C54.752 183.971 54.144 181.859 52.928 180.387C51.648 178.851 49.824 178.083 47.456 178.083C45.088 178.083 43.232 178.883 41.888 180.483C40.544 182.019 39.872 184.163 39.872 186.915V198.819H54.752V186.723ZM144.608 504.519C144.608 497.415 146.016 491.207 148.832 485.895C151.648 480.583 155.616 476.487 160.736 473.607C165.792 470.663 171.648 469.191 178.304 469.191C184.896 469.191 190.752 470.663 195.872 473.607C200.992 476.487 204.96 480.615 207.776 485.991C210.592 491.303 212 497.479 212 504.519V529.767H144.608V504.519ZM197.792 505.575C197.792 499.367 196.096 494.535 192.704 491.079C189.312 487.623 184.512 485.895 178.304 485.895C172.096 485.895 167.264 487.623 163.808 491.079C160.352 494.535 158.624 499.367 158.624 505.575V513.351H197.792V505.575ZM157.76 443.601H171.392V421.617H184.064V443.601H198.848V418.737H212V460.017H144.608V418.737H157.76V443.601ZM144.608 344.815L212 368.719L212 389.263L144.608 413.167V395.695L195.488 378.991L144.608 362.191V344.815ZM157.76 321.538H171.392V299.554H184.064V321.538H198.848V296.674H212V337.954H144.608V296.674H157.76V321.538ZM199.328 269.601V248.097H212V286.017H144.608V269.601H199.328ZM212.672 208.395C212.672 214.731 211.2 220.555 208.256 225.867C205.312 231.115 201.216 235.307 195.968 238.443C190.656 241.515 184.704 243.051 178.112 243.051C171.52 243.051 165.6 241.515 160.352 238.443C155.104 235.307 151.008 231.115 148.064 225.867C145.12 220.555 143.648 214.731 143.648 208.395C143.648 202.059 145.12 196.267 148.064 191.019C151.008 185.707 155.104 181.547 160.352 178.539C165.6 175.467 171.52 173.931 178.112 173.931C184.704 173.931 190.656 175.467 195.968 178.539C201.216 181.611 205.312 185.771 208.256 191.019C211.2 196.267 212.672 202.059 212.672 208.395ZM197.696 208.395C197.696 203.019 195.904 198.731 192.32 195.531C188.736 192.267 184 190.635 178.112 190.635C172.16 190.635 167.424 192.267 163.904 195.531C160.32 198.731 158.528 203.019 158.528 208.395C158.528 213.835 160.288 218.187 163.808 221.451C167.328 224.651 172.096 226.251 178.112 226.251C184.064 226.251 188.832 224.651 192.416 221.451C195.936 218.187 197.696 213.835 197.696 208.395ZM166.304 113.438C170.208 113.438 173.792 114.334 177.056 116.126C180.256 117.918 182.848 120.67 184.832 124.382C186.816 128.094 187.808 132.702 187.808 138.206V148.382H212V164.798H144.608V138.206C144.608 132.83 145.536 128.286 147.392 124.574C149.248 120.862 151.808 118.078 155.072 116.222C158.336 114.366 162.08 113.438 166.304 113.438ZM174.752 139.454C174.752 136.318 174.016 133.982 172.544 132.446C171.072 130.91 168.992 130.142 166.304 130.142C163.616 130.142 161.536 130.91 160.064 132.446C158.592 133.982 157.856 136.318 157.856 139.454V148.382H174.752V139.454ZM157.76 88.4757H171.392V66.4917H184.064V88.4757H198.848V63.6117H212L212 104.892H144.608L144.608 63.6117H157.76V88.4757ZM212 18.5862L186.56 32.6022V36.5382H212V52.9542H144.608V25.4022C144.608 20.0902 145.536 15.5782 147.392 11.8662C149.248 8.09025 151.808 5.27425 155.072 3.41825C158.272 1.56225 161.856 0.634245 165.824 0.634245C170.304 0.634245 174.304 1.91425 177.824 4.47425C181.344 6.97025 183.84 10.6822 185.312 15.6102L212 0.0582466V18.5862ZM174.944 36.5382V26.3622C174.944 23.3542 174.208 21.1142 172.736 19.6422C171.264 18.1062 169.184 17.3382 166.496 17.3382C163.936 17.3382 161.92 18.1062 160.448 19.6422C158.976 21.1142 158.24 23.3542 158.24 26.3622V36.5382H174.944Z" fill="black"/>
</g>
</g>
<defs>
<clipPath id="clip0_0_1">
<rect width="1366" height="617" fill="white" transform="translate(-1154 -43)"/>
</clipPath>
</defs>
</svg>
